<svg xmlns="http://www.w3.org/2000/svg" viewBox="0 0 24 24" fill="currentColor" class="w-5 h-5">
  <path d="M17.813 4.653h.854c1.51.054 2.769.578 3.773 1.574 1.004.995 1.524 2.249 1.56 3.76v7.36c-.036 1.51-.556 2.769-1.56 3.773s-2.262 1.524-3.773 1.56H5.333c-1.51-.036-2.769-.556-3.773-1.56S.036 18.858 0 17.347v-7.36c.036-1.511.556-2.765 1.56-3.76 1.004-.996 2.262-1.52 3.773-1.574h.774l-1.174-1.12a1.234 1.234 0 0 1-.373-.906c0-.356.124-.659.373-.907l.027-.027c.267-.249.573-.373.92-.373.347 0 .653.124.92.373L9.653 4.44c.071.071.134.142.187.213h4.267a.836.836 0 0 1 .16-.213l2.853-2.747c.267-.249.573-.373.92-.373.347 0 .662.151.929.4.267.249.391.551.391.907 0 .355-.124.657-.373.906l-1.174 1.12zm-3.12 7.466l-.48-.52a1.092 1.092 0 0 0-.8-.347c-.311 0-.578.116-.8.347l-2.933 2.893a1.105 1.105 0 0 0-.347.8c0 .311.116.578.347.8l.48.52c.222.231.489.347.8.347.311 0 .587-.116.8-.347l2.933-2.893c.231-.222.347-.489.347-.8 0-.311-.116-.578-.347-.8zm-7.387.84a1.14 1.14 0 0 0-.84-.347c-.311 0-.578.116-.8.347l-.507.507a1.105 1.105 0 0 0-.347.8c0 .311.116.578.347.8l3.52 3.52c.222.231.489.347.8.347.311 0 .587-.116.8-.347l.507-.507a1.14 1.14 0 0 0 .347-.84c0-.311-.116-.578-.347-.8l-3.48-3.48z"/>
</svg>
