<svg xmlns="http://www.w3.org/2000/svg" viewBox="0 0 24 24" fill="currentColor" class="w-5 h-5">
  <path d="M5.721 0C5.162 0 4.608.258 4.231.701L.237 5.379C-.071 5.743 0 6.226 0 6.696v14.874c0 .97.608 2.43 2.43 2.43h19.14c1.022 0 2.43-.665 2.43-2.43V6.696c0-.47.071-.953-.237-1.317L19.769.701C19.392.258 18.838 0 18.279 0H5.721zm7.502 1.822h.92c.044 0 .088.04.088.08v3.044h3.633c.04 0 .08.044.08.08v.888c0 .045-.04.084-.08.084h-4.69c-.04 0-.085-.04-.085-.084V1.902c0-.04.04-.08.09-.08h.044zm-5.608.063h2.124c.045 0 .089.04.089.08v.977c0 .04-.04.084-.089.084h-1.143v1.105h1.58c.04 0 .084.04.084.08v.977c0 .04-.04.084-.084.084H7.488c-.04 0-.084-.04-.084-.084V1.97c0-.045.04-.085.084-.085h.127zm8.455 0h2.235c.04 0 .084.04.084.08v.977c0 .04-.04.084-.084.084h-1.244v1.105h1.601c.04 0 .08.04.08.08v.977c0 .04-.04.084-.08.084H15.94c-.04 0-.08-.04-.08-.084V1.97c0-.045.04-.085.08-.085h.13zM4.12 7.485h15.802c.037 0 .076.042.076.084v1.148c0 .04-.04.084-.076.084H4.12c-.04 0-.08-.045-.08-.084V7.57c0-.04.04-.084.08-.084zm.093 2.457h9.53c.04 0 .08.04.08.084v6.194h1.29c.04 0 .08.04.08.084v1.102c0 .04-.04.08-.08.08h-3.72c-.04 0-.08-.04-.08-.08v-1.102c0-.045.04-.084.08-.084h1.247v-5.095H4.213c-.04 0-.084-.04-.084-.084V10.03c0-.045.04-.089.084-.089zm.9 1.824h6.44c.04 0 .08.04.08.08v.977c0 .04-.04.085-.08.085H5.113c-.04 0-.08-.045-.08-.085v-.977c0-.04.04-.08.08-.08zm0 1.912h6.44c.04 0 .08.04.08.08v.972c0 .045-.04.085-.08.085H5.113c-.04 0-.08-.04-.08-.085v-.972c0-.04.04-.08.08-.08zm0 1.912h6.44c.04 0 .08.04.08.084v.972c0 .04-.04.085-.08.085H5.113c-.04 0-.08-.045-.08-.085v-.972c0-.045.04-.084.08-.084z"/>
</svg>
